<svg id="Ebene_1" data-name="Ebene 1" xmlns="http://www.w3.org/2000/svg" viewBox="0 0 48 48"><defs><style>.cls-1{fill:#333;}</style></defs><title>is24_product_48px_financing_option</title><path class="cls-1" d="M37,6H11A2,2,0,0,0,9,8V39a4,4,0,0,0,4,4H35a4,4,0,0,0,4-4V8A2,2,0,0,0,37,6Zm0,2v9H11V8ZM35,41H13a2,2,0,0,1-2-2V19H37V39A2,2,0,0,1,35,41Z"/><path class="cls-1" d="M17,23H15a1,1,0,0,0,0,2h2a1,1,0,0,0,0-2Z"/><path class="cls-1" d="M17,29H15a1,1,0,0,0,0,2h2a1,1,0,0,0,0-2Z"/><path class="cls-1" d="M17,35H15a1,1,0,0,0,0,2h2a1,1,0,0,0,0-2Z"/><path class="cls-1" d="M25,23H23a1,1,0,0,0,0,2h2a1,1,0,0,0,0-2Z"/><path class="cls-1" d="M25,29H23a1,1,0,0,0,0,2h2a1,1,0,0,0,0-2Z"/><path class="cls-1" d="M25,35H23a1,1,0,0,0,0,2h2a1,1,0,0,0,0-2Z"/><path class="cls-1" d="M33,29H31a1,1,0,0,0,0,2h2a1,1,0,0,0,0-2Z"/><path class="cls-1" d="M33,35H31a1,1,0,0,0,0,2h2a1,1,0,0,0,0-2Z"/><path class="cls-1" d="M33,23H31a1,1,0,0,0,0,2h2a1,1,0,0,0,0-2Z"/><path class="cls-1" d="M28,15h5a1,1,0,0,0,0-2H28a1,1,0,0,0,0,2Z"/></svg>