<?xml version="1.0" encoding="utf-8"?>
<!-- Generator: Adobe Illustrator 21.0.0, SVG Export Plug-In . SVG Version: 6.00 Build 0)  -->
<svg version="1.1" id="Ebene_1" xmlns="http://www.w3.org/2000/svg" xmlns:xlink="http://www.w3.org/1999/xlink" x="0px" y="0px"
	 viewBox="0 0 48 48" style="enable-background:new 0 0 48 48;" xml:space="preserve">
<style type="text/css">
	
		.st0{fill-rule:evenodd;clip-rule:evenodd;fill:none;stroke:#333333;stroke-width:2;stroke-linecap:round;stroke-linejoin:round;stroke-miterlimit:10;}
	.st1{fill:none;stroke:#333333;stroke-width:2;stroke-linecap:round;stroke-linejoin:round;stroke-miterlimit:10;}
	.st2{fill-rule:evenodd;clip-rule:evenodd;fill:#333333;}
	.st3{fill:#333333;}
	.st4{fill:none;stroke:#C6C6C6;stroke-width:2;stroke-linecap:round;stroke-linejoin:round;stroke-miterlimit:10;}
	
		.st5{fill-rule:evenodd;clip-rule:evenodd;fill:none;stroke:#C6C6C6;stroke-width:2;stroke-linecap:round;stroke-linejoin:round;stroke-miterlimit:10;}
	
		.st6{fill-rule:evenodd;clip-rule:evenodd;fill:#333333;stroke:#333333;stroke-width:2;stroke-linecap:round;stroke-linejoin:round;stroke-miterlimit:10;}
</style>
<path class="st3" d="M24,40.6c-0.5,0-1-0.2-1.4-0.6L8.1,25.5c-1-1-1.7-2-2.1-3c-0.9-2-1.2-4.3-0.8-6.5c0.8-4.3,4.1-7.9,8.4-8.8
	c3.9-0.8,7.8,0.4,10.4,3.2c2.7-2.8,7.1-4.5,11.9-2.7c3.5,1.3,6.2,4.4,6.9,8.1c0.4,2,0.2,3.9-0.4,5.8c-0.5,1.4-1.4,2.8-2.6,4L25.4,40
	C25,40.4,24.5,40.6,24,40.6z M16,9c-0.6,0-1.3,0.1-2,0.2c-3.5,0.7-6.3,3.6-6.9,7.2C6.8,18.2,7,20,7.8,21.7c0.4,0.8,0.9,1.6,1.7,2.4
	L24,38.6l14.4-14.4c1-1,1.7-2.1,2.1-3.3c0.5-1.5,0.6-3.1,0.3-4.7c-0.6-3-2.7-5.5-5.6-6.6c-4.3-1.6-8.4,0.3-10.4,3
	C24.6,12.9,24.3,13,24,13c0,0,0,0,0,0c-0.3,0-0.6-0.1-0.8-0.4l-0.1-0.1C21.4,10.3,18.8,9,16,9z"/>
</svg>
