<?xml version="1.0" encoding="utf-8"?>
<!-- Generator: Adobe Illustrator 21.0.0, SVG Export Plug-In . SVG Version: 6.00 Build 0)  -->
<svg version="1.1" id="Ebene_1" xmlns="http://www.w3.org/2000/svg" xmlns:xlink="http://www.w3.org/1999/xlink" x="0px" y="0px"
	 viewBox="0 0 48 48" style="enable-background:new 0 0 48 48;" xml:space="preserve">
<style type="text/css">
	
		.st0{fill-rule:evenodd;clip-rule:evenodd;fill:none;stroke:#333333;stroke-width:2;stroke-linecap:round;stroke-linejoin:round;stroke-miterlimit:10;}
	.st1{fill:none;stroke:#333333;stroke-width:2;stroke-linecap:round;stroke-linejoin:round;stroke-miterlimit:10;}
	.st2{fill-rule:evenodd;clip-rule:evenodd;fill:#333333;}
	.st3{fill:#333333;}
	.st4{fill:none;stroke:#C6C6C6;stroke-width:2;stroke-linecap:round;stroke-linejoin:round;stroke-miterlimit:10;}
	
		.st5{fill-rule:evenodd;clip-rule:evenodd;fill:none;stroke:#C6C6C6;stroke-width:2;stroke-linecap:round;stroke-linejoin:round;stroke-miterlimit:10;}
	
		.st6{fill-rule:evenodd;clip-rule:evenodd;fill:#333333;stroke:#333333;stroke-width:2;stroke-linecap:round;stroke-linejoin:round;stroke-miterlimit:10;}
</style>
<g>
	<path class="st3" d="M24,17c-3.9,0-7,3.1-7,7s3.1,7,7,7s7-3.1,7-7S27.9,17,24,17z M24,29c-2.8,0-5-2.2-5-5s2.2-5,5-5s5,2.2,5,5
		S26.8,29,24,29z"/>
	<path class="st3" d="M41,20h-1c-0.8,0-1.6-0.5-1.9-1.3l-0.5-1.3c-0.3-0.7-0.1-1.6,0.4-2.2l0.9-0.9c0.8-0.8,0.8-2,0-2.8L36.4,9
		c-0.8-0.8-2-0.8-2.8,0l-0.9,0.9c-0.6,0.6-1.4,0.7-2.2,0.4l-1.3-0.5C28.5,9.5,28,8.8,28,8V7c0-1.1-0.9-2-2-2h-4c-1.1,0-2,0.9-2,2v1
		c0,0.8-0.5,1.6-1.3,1.9l-1.3,0.5c-0.7,0.3-1.6,0.1-2.2-0.4L14.4,9c-0.8-0.8-2-0.8-2.8,0L9,11.6c-0.8,0.8-0.8,2,0,2.8l0.9,0.9
		c0.6,0.6,0.7,1.4,0.4,2.2l-0.5,1.3C9.5,19.5,8.8,20,8,20H7c-1.1,0-2,0.9-2,2v4c0,1.1,0.9,2,2,2h1c0.8,0,1.6,0.5,1.9,1.3l0.5,1.3
		c0.3,0.7,0.1,1.6-0.4,2.2L9,33.6c-0.8,0.8-0.8,2,0,2.8l2.6,2.6c0.8,0.8,2,0.8,2.8,0l0.9-0.9c0.6-0.6,1.4-0.7,2.2-0.4l1.3,0.5
		c0.8,0.3,1.3,1,1.3,1.9v1c0,1.1,0.9,2,2,2h4c1.1,0,2-0.9,2-2v-1c0-0.8,0.5-1.6,1.3-1.9l1.3-0.5c0.7-0.3,1.6-0.1,2.2,0.4l0.9,0.9
		c0.8,0.8,2,0.8,2.8,0l2.6-2.6c0.8-0.8,0.8-2,0-2.8l-0.9-0.9c-0.6-0.6-0.7-1.4-0.4-2.2l0.5-1.3c0.3-0.8,1-1.3,1.9-1.3h1
		c1.1,0,2-0.9,2-2v-4C43,20.9,42.1,20,41,20z M41,26h-1c-1.6,0-3.1,1-3.7,2.5l-0.5,1.3c-0.6,1.5-0.2,3.2,0.9,4.3l0.9,0.9L35,37.6
		l-0.9-0.9c-1.1-1.1-2.8-1.5-4.3-0.9l-1.3,0.5C27,36.9,26,38.4,26,40v1h-4v-1c0-1.6-1-3.1-2.5-3.7l-1.3-0.5c-0.5-0.2-1-0.3-1.5-0.3
		c-1,0-2.1,0.4-2.8,1.2L13,37.6L10.4,35l0.9-0.9c1.1-1.1,1.5-2.8,0.9-4.3l-0.5-1.3C11.1,27,9.6,26,8,26H7v-4h1c1.6,0,3.1-1,3.7-2.5
		l0.5-1.3c0.6-1.5,0.2-3.2-0.9-4.3L10.4,13l2.6-2.6l0.9,0.9c1.1,1.1,2.8,1.5,4.3,0.9l1.3-0.5C21,11.1,22,9.6,22,8V7h4v1
		c0,1.6,1,3.1,2.5,3.7l1.3,0.5c1.5,0.6,3.2,0.2,4.3-0.9l0.9-0.9l2.6,2.6l-0.9,0.9c-1.1,1.1-1.5,2.8-0.9,4.3l0.5,1.3
		C36.9,21,38.4,22,40,22h1V26z"/>
</g>
</svg>
